<?xml version="1.0" standalone="no"?>
<!DOCTYPE svg PUBLIC "-//W3C//DTD SVG 20010904//EN"
 "http://www.w3.org/TR/2001/REC-SVG-20010904/DTD/svg10.dtd">
<svg version="1.0" xmlns="http://www.w3.org/2000/svg"
 width="512.000000pt" height="512.000000pt" viewBox="0 0 512.000000 512.000000"
 preserveAspectRatio="xMidYMid meet">

<g transform="translate(0.000000,512.000000) scale(0.100000,-0.100000)"
fill="#fefe00" stroke="none">
<path d="M910 5098 c-80 -41 -81 -46 -78 -420 l3 -324 275 227 c151 125 275
232 275 238 0 14 -323 280 -353 292 -38 15 -75 10 -122 -13z"/>
<path d="M3328 5108 c-14 -7 -101 -75 -193 -151 l-166 -138 213 -176 c117 -97
242 -200 278 -230 35 -29 68 -53 73 -53 4 0 7 148 5 329 -3 315 -4 331 -24
357 -47 63 -127 89 -186 62z"/>
<path d="M2094 5001 c-21 -15 -307 -249 -634 -520 -361 -298 -602 -504 -613
-524 -23 -40 -18 -114 9 -151 30 -41 1260 -894 1300 -902 40 -7 78 1 113 25
350 240 1213 846 1230 864 43 47 46 143 4 189 -27 31 -1208 1005 -1246 1028
-49 30 -115 27 -163 -9z"/>
<path d="M3616 3341 c-15 -10 -37 -32 -47 -47 -18 -27 -19 -52 -19 -353 l0
-323 258 -594 c141 -327 260 -594 263 -594 10 0 492 587 512 623 25 45 21 95
-11 148 -15 26 -195 290 -400 588 -260 376 -382 546 -402 556 -41 21 -119 19
-154 -4z"/>
<path d="M932 2131 c-262 -603 -412 -960 -412 -981 0 -76 1 -77 766 -620 399
-283 730 -517 735 -518 5 -2 9 512 9 1305 l0 1309 -42 21 c-24 11 -173 112
-333 223 -159 111 -294 204 -300 206 -6 3 -183 -392 -423 -945z"/>
<path d="M2704 2865 c-170 -118 -323 -221 -341 -227 l-33 -12 0 -1314 0 -1313
28 19 c424 296 1424 1011 1444 1032 33 36 49 89 38 132 -8 36 -806 1878 -819
1891 -4 4 -147 -89 -317 -208z"/>
</g>
</svg>
